<?xml version="1.0" encoding="UTF-8" standalone="no"?>
<!-- Created with Inkscape (http://www.inkscape.org/) -->

<svg
   xmlns:dc="http://purl.org/dc/elements/1.1/"
   xmlns:cc="http://creativecommons.org/ns#"
   xmlns:rdf="http://www.w3.org/1999/02/22-rdf-syntax-ns#"
   xmlns:svg="http://www.w3.org/2000/svg"
   xmlns="http://www.w3.org/2000/svg"
   xmlns:sodipodi="http://sodipodi.sourceforge.net/DTD/sodipodi-0.dtd"
   xmlns:inkscape="http://www.inkscape.org/namespaces/inkscape"
   width="100mm"
   height="35mm"
   viewBox="0 0 354.33071 124.01575"
   id="svg2"
   version="1.1"
   inkscape:version="0.91 r13725"
   sodipodi:docname="logo.svg">
  <defs
     id="defs4" />
  <sodipodi:namedview
     id="base"
     pagecolor="#ffffff"
     bordercolor="#666666"
     borderopacity="1.0"
     inkscape:pageopacity="0.0"
     inkscape:pageshadow="2"
     inkscape:zoom="1.979899"
     inkscape:cx="157.96973"
     inkscape:cy="66.133758"
     inkscape:document-units="px"
     inkscape:current-layer="layer1"
     showgrid="false"
     inkscape:window-width="1398"
     inkscape:window-height="855"
     inkscape:window-x="42"
     inkscape:window-y="1"
     inkscape:window-maximized="1" />
  <metadata
     id="metadata7">
    <rdf:RDF>
      <cc:Work
         rdf:about="">
        <dc:format>image/svg+xml</dc:format>
        <dc:type
           rdf:resource="http://purl.org/dc/dcmitype/StillImage" />
        <dc:title />
      </cc:Work>
    </rdf:RDF>
  </metadata>
  <g
     inkscape:label="Livello 1"
     inkscape:groupmode="layer"
     id="layer1"
     transform="translate(0,-928.34646)">
    <g
       id="text4205"
       style="font-style:normal;font-weight:normal;font-size:27.11831284px;line-height:125%;font-family:sans-serif;letter-spacing:0px;word-spacing:0px;fill:#00dfd2;fill-opacity:0.73800737;stroke:none;stroke-width:1px;stroke-linecap:butt;stroke-linejoin:miter;stroke-opacity:1"
       transform="translate(-4.425483,2.9423821)">
      <path
         inkscape:connector-curvature="0"
         id="path4252"
         style="font-style:italic;font-variant:normal;font-weight:bold;font-stretch:normal;font-family:'Helvetica Neue';-inkscape-font-specification:'Helvetica Neue Bold Italic';fill:#00dfd2;fill-opacity:0.73800737"
         d="m 303.09455,962.10989 3.8508,0 q -0.0271,-1.38303 -0.54236,-2.38641 -0.48813,-1.00338 -1.35592,-1.6271 -0.84067,-0.62372 -1.97964,-0.92202 -1.13897,-0.29831 -2.41353,-0.29831 -1.89828,0 -3.36267,0.70508 -1.46439,0.67796 -2.49488,1.89828 -1.00338,1.19321 -1.54575,2.79319 -0.51524,1.57286 -0.51524,3.36267 0,3.09149 1.62709,4.55588 1.65422,1.43727 4.61012,1.43727 2.76607,0 4.55587,-1.41016 1.81693,-1.43727 2.68472,-4.06774 l -3.8508,0 q -0.16271,0.51525 -0.4339,1.00338 -0.24406,0.46101 -0.65084,0.81354 -0.37965,0.35254 -0.8949,0.56949 -0.48813,0.21695 -1.13897,0.21695 -0.73219,0 -1.24744,-0.24407 -0.48813,-0.24406 -0.81355,-0.65084 -0.32542,-0.40677 -0.46101,-0.94914 -0.13559,-0.56948 -0.13559,-1.19321 0,-0.8949 0.18982,-1.9254 0.21695,-1.05761 0.67796,-1.95251 0.46101,-0.89491 1.22033,-1.46439 0.75931,-0.59661 1.84404,-0.59661 1.30168,0 1.9254,0.54237 0.65084,0.54237 0.65084,1.78981 z" />
      <path
         inkscape:connector-curvature="0"
         id="path4254"
         style="font-style:italic;font-variant:normal;font-weight:bold;font-stretch:normal;font-family:'Helvetica Neue';-inkscape-font-specification:'Helvetica Neue Bold Italic';fill:#00dfd2;fill-opacity:0.73800737"
         d="m 317.10497,961.35058 3.57962,0 q 0.0271,-1.35592 -0.43389,-2.22371 -0.46101,-0.86778 -1.27456,-1.35591 -0.78643,-0.51525 -1.84405,-0.70508 -1.05761,-0.18983 -2.19658,-0.18983 -1.00338,0 -2.11523,0.24407 -1.08473,0.21695 -2.00676,0.75931 -0.92202,0.51525 -1.51862,1.35592 -0.56949,0.84067 -0.56949,2.08811 0,0.84067 0.18983,1.41015 0.21695,0.56948 0.59661,0.97626 0.40677,0.40677 0.94914,0.67796 0.56948,0.27118 1.30168,0.51525 l 2.95589,0.94914 q 0.62372,0.21694 1.00338,0.51524 0.37966,0.29831 0.37966,1.0305 0,0.48813 -0.21695,0.81355 -0.21695,0.2983 -0.56949,0.51525 -0.35253,0.18983 -0.78643,0.27118 -0.43389,0.0814 -0.86778,0.0814 -0.48813,0 -1.00338,-0.10848 -0.48813,-0.13559 -0.8949,-0.35254 -0.37966,-0.24406 -0.62373,-0.5966 -0.24406,-0.35254 -0.24406,-0.84067 l 0,-0.46101 -3.5525,0 0,0.56949 q 0,1.24744 0.54237,2.08811 0.54236,0.81355 1.38303,1.32879 0.86779,0.48813 1.9254,0.70508 1.05762,0.21695 2.08811,0.21695 1.22033,0 2.41353,-0.24407 1.19321,-0.24406 2.14235,-0.81355 0.94914,-0.56948 1.51862,-1.46439 0.59661,-0.92202 0.59661,-2.2237 0,-0.86778 -0.29831,-1.51862 -0.27118,-0.65084 -0.78643,-1.11185 -0.48813,-0.48813 -1.16608,-0.81355 -0.65084,-0.32542 -1.43727,-0.56949 l -1.9254,-0.62372 q -0.97626,-0.2983 -1.38304,-0.62372 -0.37965,-0.32542 -0.37965,-0.78643 0,-0.75931 0.65083,-1.05762 0.67796,-0.32542 1.70846,-0.32542 1.13897,0 1.6271,0.51525 0.51524,0.48813 0.54236,1.38304 z" />
      <path
         inkscape:connector-curvature="0"
         id="path4256"
         style="font-style:italic;font-variant:normal;font-weight:bold;font-stretch:normal;font-family:'Helvetica Neue';-inkscape-font-specification:'Helvetica Neue Bold Italic';fill:#00dfd2;fill-opacity:0.73800737"
         d="m 331.19378,961.35058 3.57962,0 q 0.0271,-1.35592 -0.43389,-2.22371 -0.46101,-0.86778 -1.27456,-1.35591 -0.78643,-0.51525 -1.84405,-0.70508 -1.05761,-0.18983 -2.19658,-0.18983 -1.00338,0 -2.11523,0.24407 -1.08473,0.21695 -2.00675,0.75931 -0.92203,0.51525 -1.51863,1.35592 -0.56948,0.84067 -0.56948,2.08811 0,0.84067 0.18982,1.41015 0.21695,0.56948 0.59661,0.97626 0.40677,0.40677 0.94914,0.67796 0.56948,0.27118 1.30168,0.51525 l 2.95589,0.94914 q 0.62372,0.21694 1.00338,0.51524 0.37966,0.29831 0.37966,1.0305 0,0.48813 -0.21695,0.81355 -0.21695,0.2983 -0.56948,0.51525 -0.35254,0.18983 -0.78644,0.27118 -0.43389,0.0814 -0.86778,0.0814 -0.48813,0 -1.00338,-0.10848 -0.48813,-0.13559 -0.8949,-0.35254 -0.37966,-0.24406 -0.62372,-0.5966 -0.24407,-0.35254 -0.24407,-0.84067 l 0,-0.46101 -3.5525,0 0,0.56949 q 0,1.24744 0.54237,2.08811 0.54236,0.81355 1.38303,1.32879 0.86779,0.48813 1.9254,0.70508 1.05762,0.21695 2.08811,0.21695 1.22033,0 2.41353,-0.24407 1.19321,-0.24406 2.14235,-0.81355 0.94914,-0.56948 1.51862,-1.46439 0.59661,-0.92202 0.59661,-2.2237 0,-0.86778 -0.2983,-1.51862 -0.27119,-0.65084 -0.78644,-1.11185 -0.48813,-0.48813 -1.16608,-0.81355 -0.65084,-0.32542 -1.43727,-0.56949 l -1.9254,-0.62372 q -0.97626,-0.2983 -1.38304,-0.62372 -0.37965,-0.32542 -0.37965,-0.78643 0,-0.75931 0.65084,-1.05762 0.67795,-0.32542 1.70845,-0.32542 1.13897,0 1.6271,0.51525 0.51525,0.48813 0.54236,1.38304 z" />
    </g>
    <g
       style="font-style:normal;font-weight:normal;font-size:70.85003662px;line-height:125%;font-family:sans-serif;letter-spacing:0px;word-spacing:0px;fill:#ff0000;fill-opacity:1;stroke:none;stroke-width:1px;stroke-linecap:butt;stroke-linejoin:miter;stroke-opacity:1"
       id="text4160">
      <path
         d="m 49.3456,982.30655 q 1.346151,0.4251 2.196351,1.48785 0.921051,0.9919 0.921051,3.2591 0,2.26721 -1.346151,4.95951 -1.346151,2.6923 -3.896752,2.6923 -1.275301,0 -2.479751,-0.5668 -1.133601,-0.5668 -3.046552,-0.5668 -1.912951,0 -3.613352,1.34615 -1.629551,1.34615 -1.629551,3.2591 l 0,14.87854 q 0,1.6295 -0.1417,2.4797 -0.07085,0.7794 -0.63765,1.8421 -1.062751,1.8421 -5.526303,1.8421 -3.400802,0 -4.888652,-1.2044 -1.133601,-0.9919 -1.275301,-3.0466 0,-0.7085 0,-2.0546 l 0,-24.86839 q 0,-1.62956 0.07085,-2.40891 0.1417,-0.8502 0.63765,-1.8421 0.991901,-1.91295 5.526303,-1.91295 4.251002,0 5.313753,1.62955 0.77935,1.1336 0.77935,2.33805 0.35425,-0.49595 0.991901,-1.20445 0.7085,-0.7085 2.904851,-1.91295 2.196351,-1.20445 3.825902,-1.20445 1.700401,0 2.834002,0.21255 1.1336,0.1417 2.479751,0.5668 z"
         style="font-style:normal;font-variant:normal;font-weight:normal;font-stretch:normal;font-family:'Fredoka One';-inkscape-font-specification:'Fredoka One';fill:#ff0000"
         id="path4205" />
      <path
         d="m 78.516996,985.84905 q 0.4251,-3.9676 5.597153,-3.9676 2.763151,0 4.109302,0.4251 1.346151,0.4251 1.842101,1.48785 0.5668,1.06275 0.63765,1.91295 0.1417,0.77935 0.1417,2.40891 l 0,24.79754 q 0,1.6295 -0.1417,2.4797 -0.07085,0.7794 -0.5668,1.8421 -0.991901,1.8421 -4.888653,1.8421 -3.825902,0 -5.172052,-0.921 -1.275301,-0.9919 -1.487851,-2.834 -2.621451,3.755 -8.785405,3.755 -6.093103,0 -11.336005,-5.5971 -5.242903,-5.5972 -5.242903,-12.9656 0,-7.43924 5.242903,-12.96554 5.313752,-5.59716 11.619406,-5.59716 2.408901,0 4.392702,0.8502 1.983801,0.8502 2.763151,1.62955 0.779351,0.7085 1.275301,1.417 z m -12.894707,14.73685 q 0,2.338 1.842101,4.251 1.842101,1.8421 4.463553,1.8421 2.621451,0 4.321852,-1.913 1.771251,-1.9129 1.771251,-4.1801 0,-2.33809 -1.700401,-4.32189 -1.629551,-1.9838 -4.463553,-1.9838 -2.763151,0 -4.534402,1.9838 -1.700401,1.9838 -1.700401,4.32189 z"
         style="font-style:normal;font-variant:normal;font-weight:normal;font-stretch:normal;font-family:'Fredoka One';-inkscape-font-specification:'Fredoka One';fill:#ff0000"
         id="path4207" />
      <path
         d="m 121.50194,966.36529 q 0.5668,-1.06275 1.91295,-1.48785 1.34615,-0.4251 3.5425,-0.4251 2.2672,0 3.61335,0.4251 1.34615,0.4251 1.84211,1.48785 0.5668,1.06275 0.63765,1.91296 0.1417,0.77935 0.1417,2.4089 l 0,42.29745 q 0,1.6296 -0.1417,2.4798 -0.0709,0.7793 -0.63765,1.7712 -1.06276,1.913 -6.02226,1.913 -4.88865,0 -5.45545,-3.4717 -2.9757,3.4008 -8.28946,3.4008 -6.3765,0 -11.6194,-5.5263 -5.242904,-5.5971 -5.242904,-12.9655 0,-7.43929 5.242904,-13.03644 5.31375,-5.59716 11.6194,-5.59716 5.24291,0 8.14776,3.5425 l 0,-14.8785 q 0,-1.62955 0.0708,-2.4089 0.1417,-0.85021 0.63765,-1.84211 z m -11.47771,38.47161 q 1.8421,1.9129 4.46356,1.9129 2.62145,0 4.32185,-1.9129 1.77125,-1.913 1.77125,-4.1802 0,-2.33804 -1.7004,-4.32184 -1.62955,-1.9838 -4.46355,-1.9838 -2.83401,0 -4.53441,1.9838 -1.7004,1.91295 -1.7004,4.25104 0,2.338 1.8421,4.251 z"
         style="font-style:normal;font-variant:normal;font-weight:normal;font-stretch:normal;font-family:'Fredoka One';-inkscape-font-specification:'Fredoka One';fill:#ff0000"
         id="path4209" />
      <path
         d="m 138.83584,988.11626 q 0,-1.62956 0.0709,-2.40891 0.1417,-0.8502 0.63765,-1.91295 0.9919,-1.8421 5.5263,-1.8421 3.40081,0 4.81781,1.20445 1.20445,0.9919 1.2753,3.04655 0.0709,0.7085 0.0709,2.05466 l 0,24.79754 q 0,1.6295 -0.1417,2.4797 -0.0708,0.7794 -0.63765,1.8421 -0.92105,1.8421 -5.45546,1.8421 -4.46355,0 -5.45545,-1.9129 -0.49595,-1.0628 -0.63765,-1.8421 -0.0709,-0.7794 -0.0709,-2.4798 l 0,-24.86834 z M 150.45525,975.009 q -0.49595,0.9919 -1.8421,1.417 -1.34616,0.4251 -3.61336,0.4251 -2.19635,0 -3.5425,-0.4251 -1.34615,-0.4251 -1.91295,-1.48785 -0.49595,-1.06275 -0.63765,-1.8421 -0.0709,-0.8502 -0.0709,-2.47975 0,-1.62955 0.0709,-2.4089 0.1417,-0.85021 0.63765,-1.84211 0.9919,-1.91295 5.5263,-1.91295 4.46356,0 5.38461,1.91295 0.5668,1.06275 0.63765,1.91296 0.1417,0.77935 0.1417,2.4089 0,1.62955 -0.1417,2.47975 -0.0708,0.77935 -0.63765,1.8421 z"
         style="font-style:normal;font-variant:normal;font-weight:normal;font-stretch:normal;font-family:'Fredoka One';-inkscape-font-specification:'Fredoka One';fill:#ff0000"
         id="path4211" />
      <path
         d="m 155.76236,1000.5859 q 0,-8.50204 5.95141,-14.02835 5.9514,-5.5263 13.6032,-5.5263 7.65181,0 13.53236,5.5263 5.88055,5.45546 5.88055,13.95745 0,5.8806 -3.04655,10.4858 -3.04655,4.5344 -7.43925,6.7308 -4.32185,2.1255 -8.99796,2.1255 -4.6761,0 -9.0688,-2.2672 -4.3927,-2.3381 -7.43926,-6.8016 -2.9757,-4.5344 -2.9757,-10.2024 z m 14.80766,5.1012 q 2.2672,1.7004 4.60525,1.7004 2.33805,0 4.67611,-1.7713 2.33805,-1.7712 2.33805,-5.2429 0,-3.47164 -2.19635,-5.17204 -2.19636,-1.7004 -4.74696,-1.7004 -2.5506,0 -4.74695,1.77125 -2.19635,1.77125 -2.19635,5.24289 0,3.4008 2.2672,5.1721 z"
         style="font-style:normal;font-variant:normal;font-weight:normal;font-stretch:normal;font-family:'Fredoka One';-inkscape-font-specification:'Fredoka One';fill:#ff0000"
         id="path4213" />
      <path
         d="m 219.78312,981.9523 q 6.30565,0 11.54856,5.59716 5.31375,5.59715 5.31375,13.03644 0,7.3684 -5.2429,12.9655 -5.24291,5.5263 -11.26516,5.5263 -6.02225,0 -8.57285,-3.4008 -0.56681,3.4717 -6.09311,3.4717 -4.46355,0 -5.45545,-1.913 -0.49595,-1.0627 -0.63765,-1.8421 -0.0709,-0.8502 -0.0709,-2.4797 l 0,-42.2975 q 0,-1.62955 0.0709,-2.4089 0.1417,-0.85021 0.63765,-1.84211 0.9919,-1.91295 5.5263,-1.91295 4.46355,0 5.3846,1.91295 0.56681,1.06275 0.63766,1.91296 0.1417,0.77935 0.1417,2.4089 l 0,14.7368 q 2.834,-3.47165 8.0769,-3.47165 z m -6.2348,22.8846 q 1.77125,1.9129 4.3927,1.9129 2.62145,0 4.46355,-1.9129 1.8421,-1.913 1.8421,-4.251 0,-2.33809 -1.7004,-4.25104 -1.7004,-1.9838 -4.5344,-1.9838 -2.834,0 -4.5344,1.9838 -1.62955,1.9838 -1.62955,4.32184 0,2.2672 1.7004,4.1802 z"
         style="font-style:normal;font-variant:normal;font-weight:normal;font-stretch:normal;font-family:'Fredoka One';-inkscape-font-specification:'Fredoka One';fill:#ff0000"
         id="path4215" />
      <path
         d="m 240.17353,1000.5859 q 0,-8.50204 5.9514,-14.02835 5.9514,-5.5263 13.60321,-5.5263 7.6518,0 13.53235,5.5263 5.88056,5.45546 5.88056,13.95745 0,5.8806 -3.04656,10.4858 -3.04655,4.5344 -7.43925,6.7308 -4.32185,2.1255 -8.99795,2.1255 -4.67611,0 -9.06881,-2.2672 -4.3927,-2.3381 -7.43925,-6.8016 -2.9757,-4.5344 -2.9757,-10.2024 z m 14.80765,5.1012 q 2.2672,1.7004 4.60526,1.7004 2.33805,0 4.6761,-1.7713 2.33805,-1.7712 2.33805,-5.2429 0,-3.47164 -2.19635,-5.17204 -2.19635,-1.7004 -4.74695,-1.7004 -2.55061,0 -4.74696,1.77125 -2.19635,1.77125 -2.19635,5.24289 0,3.4008 2.2672,5.1721 z"
         style="font-style:normal;font-variant:normal;font-weight:normal;font-stretch:normal;font-family:'Fredoka One';-inkscape-font-specification:'Fredoka One';fill:#ff0000"
         id="path4217" />
      <path
         d="m 308.1951,1000.515 7.86435,7.9352 q 2.5506,2.5506 2.5506,4.3927 0,1.7713 -2.5506,4.3219 -2.5506,2.4797 -4.32185,2.4797 -1.77125,0 -4.32185,-2.5506 l -7.79351,-7.8643 -7.86435,7.8643 q -2.5506,2.5506 -4.32185,2.5506 -1.70041,0 -4.32186,-2.4797 -2.5506,-2.5506 -2.5506,-4.3219 0,-1.8421 2.5506,-4.3927 l 7.86436,-7.9352 -7.86436,-7.93519 q -2.5506,-2.5506 -2.5506,-4.32185 0,-1.84211 2.5506,-4.39271 2.62145,-2.5506 4.32186,-2.5506 1.77125,0 4.32185,2.5506 l 7.86435,7.93521 7.79351,-7.93521 q 2.5506,-2.5506 4.32185,-2.5506 1.77125,0 4.32185,2.5506 2.5506,2.5506 2.5506,4.39271 0,1.77125 -2.5506,4.32185 l -7.86435,7.93519 z"
         style="font-style:normal;font-variant:normal;font-weight:normal;font-stretch:normal;font-family:'Fredoka One';-inkscape-font-specification:'Fredoka One';fill:#ff0000"
         id="path4219" />
    </g>
  </g>
</svg>
